<?xml version="1.0" encoding="utf-8"?>
<svg version="1.1" id="Camada_1" xmlns="http://www.w3.org/2000/svg" xmlns:xlink="http://www.w3.org/1999/xlink" x="0px" y="0px"
	 viewBox="0 0 120 120" style="enable-background:new 0 0 120 120;" xml:space="preserve">
<style type="text/css">
	.st0{opacity:0.25;enable-background:new    ;}
	.st1{fill:#FF9800;}
	.st2{fill:#3F51B5;}
	.st3{opacity:0.25;}
</style>
<g id="Camada_3">
	<path class="st0" d="M97.3,70c6.3,0,12.5-4.7,14.2-10.8l7.7-29.5H54.4H43.7l0,0l-1-6.3c-0.2-1.6-1.6-2.7-3.1-2.7h-8.2
		c-1.6,0-2.8,1.3-2.8,2.8c0,2.4,1.9,3.3,4.4,3.3l2.8-0.1c1.6,0,1.5,1.7,1.6,2.4l7.8,45.8c0,0.1,0.1,0.2,0.1,0.3
		c1,5.4,5.8,9.6,11.6,9.6c-4,2-5.4,6.7-3.6,10.5c2,4,6.7,5.4,10.5,3.6c3.8-1.9,5.4-6.7,3.6-10.5c-0.7-1.6-1.9-2.8-3.6-3.6l0,0
		c1.8,0,30.1,0,30.1,0c-4,2-5.4,6.7-3.6,10.5c2,4,6.7,5.4,10.5,3.6c4-2,5.4-6.7,3.6-10.5c-0.7-1.6-1.9-2.8-3.6-3.6l0,0
		c0.6,0,4.5,0,6.6,0c0.9,0,1.9-0.5,2.3-1.4c1-2.3-0.4-4.4-2.5-4.4H56.5c-3.1,0-5.2-2.4-5.8-5.8l-0.3-2.3c0-0.1,0-0.3,0-0.4l-0.4-2.5
		l0,0c1.8,1,4.7,1.8,6.9,1.8H97.3z M97.3,88c2.2,0,4,1.8,4,4c0,2.2-1.8,4-4,4c-2.2,0-4-1.8-4-4S95.1,88,97.3,88z M60.3,88
		c2.2,0,4,1.8,4,4c0,2.2-1.8,4-4,4s-4-1.8-4-4S58.1,88,60.3,88z"/>
</g>
<g id="Camada_4">
	<path class="st1" d="M98,69.4c6.3,0,12.5-4.7,14.2-10.8l7.7-29.5H55H44.3l0,0l-1-6.3c-0.2-1.6-1.6-2.7-3.1-2.7H32
		c-1.6,0-2.8,1.3-2.8,2.8c0,2.4,1.9,3.3,4.4,3.3l2.8-0.1c1.6,0,1.5,1.7,1.6,2.4l7.8,45.8c0,0.1,0.1,0.2,0.1,0.3
		c1,5.4,5.8,9.6,11.6,9.6c-4,2-5.4,6.7-3.6,10.5c2,4,6.7,5.4,10.5,3.6c3.8-1.8,5.4-6.7,3.6-10.5c-0.7-1.6-1.9-2.8-3.6-3.6l0,0
		c1.8,0,30.1,0,30.1,0c-4,2-5.4,6.7-3.6,10.5c2,4,6.7,5.4,10.5,3.6c4-2,5.4-6.7,3.6-10.5c-0.7-1.6-1.9-2.8-3.6-3.6l0,0
		c0.6,0,4.5,0,6.6,0c0.9,0,1.9-0.5,2.3-1.4c1-2.3-0.4-4.4-2.5-4.4H57.2c-3.1,0-5.2-2.4-5.8-5.8l-0.3-2.3c0-0.1,0-0.3,0-0.4l-0.4-2.5
		l0,0c1.8,1,4.7,1.8,6.9,1.8C57.6,69.4,98,69.4,98,69.4z M98,87.3c2.2,0,4,1.8,4,4c0,2.2-1.8,4-4,4c-2.2,0-4-1.8-4-4
		C94,89.1,95.8,87.3,98,87.3z M60.9,87.3c2.2,0,4,1.8,4,4c0,2.2-1.8,4-4,4s-4-1.8-4-4C57,89.1,58.7,87.3,60.9,87.3z"/>
</g>
<path class="st0" d="M86.2,51.4c3.1-4.5,2.6-10.9-1.7-14.8c-4.2-3.8-10.8-3.8-15,0c-4.8,4.3-5,11.6-0.6,16.2c3.6,3.7,9,4.4,13.4,2.2
	c0.2-0.1,0.4-0.1,0.6,0.1l10.2,10.6c0.4,0.4,1,0.4,1.5,0l1.7-1.7c0.4-0.4,0.4-1,0-1.5l-10-10.5C86.1,51.9,86.1,51.6,86.2,51.4z
	 M81.7,49.8c-2.7,2.6-6.9,2.5-9.5-0.2c-2.6-2.7-2.5-6.9,0.2-9.5c2.7-2.6,6.9-2.5,9.5,0.2C84.5,43,84.4,47.3,81.7,49.8z"/>
<path class="st2" d="M87.1,50.4c3.1-4.5,2.6-10.9-1.7-14.8c-4.2-3.8-10.8-3.8-15,0c-4.8,4.3-5,11.6-0.6,16.2c3.6,3.7,9,4.4,13.4,2.2
	c0.2-0.1,0.4-0.1,0.6,0.1l10.2,10.6c0.4,0.4,1,0.4,1.5,0l1.7-1.7c0.4-0.4,0.4-1,0-1.5L87.2,51C87,50.8,87,50.6,87.1,50.4z
	 M82.6,48.7c-2.7,2.6-6.9,2.5-9.5-0.2c-2.6-2.7-2.5-6.9,0.2-9.5c2.7-2.6,6.9-2.5,9.5,0.2C85.3,41.9,85.2,46.2,82.6,48.7z"/>
<g class="st3">
	<polygon points="37.9,47.3 3.4,48.5 38.3,49.5 	"/>
	<polygon points="36.7,39.9 15.4,40.8 37,41.7 	"/>
	<polygon points="41.1,67.6 23.3,68.6 41.3,69.5 	"/>
	<polygon points="39,53.5 0.1,54.6 39.3,55.6 	"/>
	<polygon points="40.1,60.8 5,61.8 40.6,62.7 	"/>
</g>
<g>
	<polygon class="st2" points="39,46.2 4.5,47.5 39.3,48.4 	"/>
	<polygon class="st2" points="37.7,38.9 16.4,39.7 38,40.7 	"/>
	<polygon class="st2" points="42.1,66.6 24.3,67.5 42.3,68.5 	"/>
	<polygon class="st2" points="40,52.5 1.1,53.5 40.3,54.6 	"/>
	<polygon class="st2" points="41.2,59.8 6.1,60.7 41.6,61.7 	"/>
</g>
</svg>
